<svg xmlns="http://www.w3.org/2000/svg" viewBox="0 0 48 48" id="house">
  <path d="M43.7680664 34.359375l-5-6-1.5361328 1.28125 3.6329346 4.359375H7.1351318l3.6329346-4.359375-1.5361328-1.28125-5 6c-.309082.3710938-.309082.9101562 0 1.28125l5 6 1.5361328-1.28125-3.6329346-4.359375H40.8648682l-3.6329346 4.359375 1.5361328 1.28125 5-6c.309082-.3710938.309082-.9101562 0-1.28125zM15 26h18c.5522461 0 1-.4472656 1-1V13c0-.3344727-.1669922-.6464844-.4453125-.8320312l-9-6c-.3359375-.2236328-.7734375-.2236328-1.109375 0l-9 6c-.2783203.1855469-.4453125.4975586-.4453125.8320312v12c0 .5527344.4477539 1 1 1zm11-2h-4v-4h4v4zm-10-10.4648438l8-5.3334961 8 5.3334961v10.4648438h-4v-5c0-.5522461-.4477539-1-1-1h-6c-.5522461 0-1 .4477539-1 1v5h-4V13.5351562z"></path>
</svg>
