<svg xmlns="http://www.w3.org/2000/svg" xml:space="preserve" id="sofa" x="0" y="0" style="enable-background:new 0 0 55 55" version="1.1" viewBox="0 0 55 55">
  <g>
    <path d="M49.1166992,29.9443359h-7.453125c0-6.174408,0-2.551405,0-12.3720703c0-2.1269531-1.730957-3.8574219-3.8583984-3.8574219
		h-10.09375c-1.2788086,0-2.4057617,0.6322021-3.1079102,1.5928955c-0.7025146-0.9613037-1.829834-1.5938721-3.1088867-1.5938721
		H11.4018555c-2.1274414,0-3.8583984,1.7314453-3.8583984,3.859375v1.4902344H5.8828125
		C4.5688477,19.0634766,3.5,20.1328125,3.5,21.4462891v12.4677734c0,1.7587891,1.1437988,3.2404785,2.7211914,3.7819824v1.592041
		c0,1.1015625,0.8964844,1.9980469,1.9980469,1.9980469h1.5317383c1.1015625,0,1.9980469-0.8964844,1.9980469-1.9980469v-1.359375
		h30.3286133v1.359375c0,1.1015625,0.8964844,1.9980469,1.9980469,1.9980469h1.5317383
		c1.1015625,0,1.9980469-0.8964844,1.9980469-1.9980469v-1.359375h1.5112305c1.3139648,0,2.3833008-1.0693359,2.3833008-2.3828125
		v-3.21875C51.5,31.0136719,50.4306641,29.9443359,49.1166992,29.9443359z M46.1054688,39.2880859
		c0,0.2744141-0.2236328,0.4980469-0.4980469,0.4980469h-1.5317383c-0.2744141,0-0.4980469-0.2236328-0.4980469-0.4980469
		v-1.3583984h2.527832V39.2880859z M11.4848633,26.5625h9.5834961c1.5356445,0,2.7851563,1.2490234,2.7851563,2.7851563v0.5966797
		H11.4848633V26.5625z M25.3535156,29.9443359v-0.5966797c0-1.5361328,1.2490234-2.7851563,2.784668-2.7851563h12.0253906v3.3818359
		H25.3535156z M25.3535156,17.5722656c0-1.2998047,1.0576172-2.3574219,2.3579102-2.3574219h10.09375
		c1.300293,0,2.3583984,1.0576172,2.3583984,2.3574219V25.0625H28.1381836c-1.0678711,0-2.0336914,0.4066772-2.784668,1.0551758
		v-8.5444336V17.5722656z M9.043457,17.5732422c0-1.3007813,1.0581055-2.359375,2.3583984-2.359375h10.0927734
		c1.3007813,0,2.3588867,1.0585938,2.3588867,2.359375v8.5446777c-0.7512207-0.6486816-1.717041-1.0554199-2.7851563-1.0554199
		h-9.5834961v-3.6162109c0-0.003418-0.0019531-0.0062866-0.0019531-0.0097046
		c-0.0053711-1.30896-1.0706787-2.3731079-2.3808594-2.3731079H9.1015625H9.043457V17.5732422z M10.2490234,39.2880859
		c0,0.2744141-0.2236328,0.4980469-0.4980469,0.4980469H8.2192383c-0.2744141,0-0.4980469-0.2236328-0.4980469-0.4980469v-1.3583984
		h2.527832V39.2880859z M50,35.5458984c0,0.4863281-0.3964844,0.8828125-0.8833008,0.8828125H7.5146484
		C6.1279297,36.4287109,5,35.3007813,5,33.9140625V21.4462891c0-0.4863281,0.3959961-0.8828125,0.8828125-0.8828125
		c0.3389497,0,3.3385315,0,3.21875,0h0.0004883c0.4863281,0,0.8818359,0.3964844,0.8818359,0.8828125v9.2480469
		c0,0.4140625,0.3359375,0.75,0.75,0.75h0.0004883h0.0004883c45.1363907,0.001461-6.7812996,0.0000038,38.3818359,0
		C49.6035156,31.4443359,50,31.8408203,50,32.3271484V35.5458984z"></path>
  </g>
</svg>
